<svg width="192" height="68" viewBox="0 0 192 68" fill="none" xmlns="http://www.w3.org/2000/svg">
<path d="M0 0V46.9399H13.92V14.228H46.9342V0H0Z" fill="#F3FBFF"/>
<path d="M46.9328 17.3264H32.9159V32.9044H16.793V46.9213L46.9328 46.9212V17.3264Z" fill="#F3FBFF"/>
<path d="M75.5856 39.4289C75.2523 37.3429 73.6187 36.1236 71.5565 36.1236C69.0323 36.1236 67.1702 38.0144 67.1702 41.1339C67.1702 44.2534 69.0228 46.1441 71.5565 46.1441C73.6997 46.1441 75.2665 44.801 75.5856 42.8722L74.0997 42.8674C73.8473 44.1152 72.7995 44.801 71.566 44.801C69.8944 44.801 68.6323 43.5199 68.6323 41.1339C68.6323 38.7669 69.8896 37.4667 71.5708 37.4667C72.8138 37.4667 73.8568 38.1668 74.0997 39.4289H75.5856ZM77.7373 37.5238H80.7758V46.0107H82.2427V37.5238H85.286V36.257H77.7373V37.5238ZM88.094 46.0107H89.5657V42.5817H91.566C93.8282 42.5817 94.9474 41.2148 94.9474 39.4146C94.9474 37.6191 93.8377 36.257 91.5707 36.257H88.094V46.0107ZM89.5657 41.3339V37.5191H91.4136C92.8709 37.5191 93.4662 38.3097 93.4662 39.4146C93.4662 40.5195 92.8709 41.3339 91.4326 41.3339H89.5657ZM106.218 41.1339C106.218 38.0144 104.351 36.1236 101.827 36.1236C99.2934 36.1236 97.4312 38.0144 97.4312 41.1339C97.4312 44.2486 99.2934 46.1441 101.827 46.1441C104.351 46.1441 106.218 44.2534 106.218 41.1339ZM104.761 41.1339C104.761 43.5104 103.503 44.801 101.827 44.801C100.146 44.801 98.8933 43.5104 98.8933 41.1339C98.8933 38.7573 100.146 37.4667 101.827 37.4667C103.503 37.4667 104.761 38.7573 104.761 41.1339ZM109.26 36.257V46.0107H110.613L115.57 38.8574H115.661V46.0107H117.132V36.257H115.77L110.808 43.4199H110.717V36.257H109.26ZM114.132 33.7805C114.132 34.2615 113.865 34.6854 113.199 34.6854C112.522 34.6854 112.27 34.2567 112.27 33.7805H111.103C111.103 34.852 111.917 35.5902 113.199 35.5902C114.489 35.5902 115.304 34.852 115.304 33.7805H114.132ZM120.754 36.257V46.0107H122.107L127.065 38.8574H127.155V46.0107H128.627V36.257H127.265L122.302 43.4199H122.212V36.257H120.754ZM132.517 46.0107H133.989V41.7578H138.851V46.0107H140.328V36.257H138.851V40.4957H133.989V36.257H132.517V46.0107ZM150.606 36.257H149.149V40.4766H148.02L145.601 36.257H143.8L146.706 40.9053L143.581 46.0107H145.282L147.768 41.8483H149.149V46.0107H150.606V41.8483H152.002L154.454 46.0107H156.174L153.068 40.9148L155.964 36.257H154.169L151.768 40.4766H150.606V36.257ZM165.077 46.0107H166.873L162.825 40.6243L166.725 36.257H164.93L161.243 40.3766H160.762V36.257H159.291V46.0107H160.762V41.6387H161.801L165.077 46.0107ZM177.849 41.1339C177.849 38.0144 175.982 36.1236 173.458 36.1236C170.924 36.1236 169.062 38.0144 169.062 41.1339C169.062 44.2486 170.924 46.1441 173.458 46.1441C175.982 46.1441 177.849 44.2534 177.849 41.1339ZM176.391 41.1339C176.391 43.5104 175.134 44.801 173.458 44.801C171.776 44.801 170.524 43.5104 170.524 41.1339C170.524 38.7573 171.776 37.4667 173.458 37.4667C175.134 37.4667 176.391 38.7573 176.391 41.1339ZM180.89 36.257V46.0107H182.291V38.9479H182.381L185.258 45.9965H186.42L189.296 38.9526H189.387V46.0107H190.787V36.257H189.001L185.896 43.839H185.782L182.676 36.257H180.89Z" fill="#F3FBFF"/>
</svg>
