<svg width="21" height="22" viewBox="0 0 21 22" fill="none" xmlns="http://www.w3.org/2000/svg">
<path d="M17.6536 3.81294C15.7445 1.91045 13.199 0.853516 10.512 0.853516C4.9261 0.853516 0.400785 5.36313 0.400785 10.9297C0.400785 12.6912 0.895745 14.4528 1.74424 15.9325L0.330078 21.1467L5.70391 19.7375C7.18877 20.5126 8.81504 20.9354 10.512 20.9354C16.098 20.9354 20.6233 16.4258 20.6233 10.8592C20.5526 8.25209 19.5627 5.71544 17.6536 3.81294ZM15.3909 14.5232C15.1788 15.0869 14.1889 15.6507 13.6939 15.7211C13.2696 15.7916 12.704 15.7916 12.1383 15.6507C11.7848 15.5097 11.2898 15.3688 10.7242 15.087C8.17868 14.03 6.55241 11.4934 6.41099 11.282C6.26957 11.1411 5.35035 9.94319 5.35035 8.67486C5.35035 7.40653 5.98674 6.84284 6.19885 6.56097C6.41099 6.27914 6.69382 6.27914 6.90593 6.27914C7.04735 6.27914 7.25946 6.27914 7.40088 6.27914C7.54229 6.27914 7.75443 6.20869 7.96654 6.7019C8.17868 7.19515 8.67363 8.46348 8.74435 8.53393C8.81504 8.67486 8.81504 8.81579 8.74435 8.95672C8.67363 9.09763 8.60293 9.23856 8.46152 9.37949C8.3201 9.52042 8.17868 9.7318 8.10796 9.80226C7.96654 9.94319 7.82513 10.0841 7.96654 10.2955C8.10796 10.5774 8.60293 11.3524 9.38071 12.0571C10.3706 12.9026 11.1484 13.1845 11.4313 13.3254C11.7141 13.4663 11.8555 13.3959 11.9969 13.2549C12.1383 13.114 12.6333 12.5503 12.7747 12.2685C12.9161 11.9866 13.1283 12.0571 13.3404 12.1275C13.5525 12.198 14.8252 12.8322 15.0374 12.9731C15.3202 13.114 15.4616 13.1845 15.5323 13.2549C15.603 13.4663 15.603 13.9596 15.3909 14.5232Z" fill="white"/>
</svg>
