<svg width="21" height="18" viewBox="0 0 21 18" fill="none" xmlns="http://www.w3.org/2000/svg">
<path fill-rule="evenodd" clip-rule="evenodd" d="M3.98129 7.24524C4.97674 10.7443 5.29091 11.6033 5.64003 12.7569C6.6368 16.0504 6.87873 16.7061 7.14611 17.0434C7.20493 17.1175 7.35743 17.2661 7.53039 17.3013C7.67644 17.3311 7.79468 17.2752 7.87313 17.2304C7.95158 17.1856 8.12034 17.0714 8.23319 16.9592C9.52129 15.6773 12.4394 12.3141 13.7639 10.7346C14.3243 10.0663 14.3459 9.63979 14.1735 9.38576C13.7988 8.83374 15.7816 9.25516 15.0471 9.02596C13.8978 8.66727 15.275 8.86317 14.1568 8.51718C12.8645 8.11731 11.1041 9.60683 9.3234 11.3154C9.06901 11.5698 8.17865 13.2234 8.05146 13.4777C8.03263 13.5024 7.75827 14.1276 7.66987 14.1137C7.58147 14.0998 7.45822 13.3714 7.42548 13.3061C7.37906 13.2135 7.17888 11.2958 6.82492 7.55279C6.77717 7.00097 6.63253 6.58451 6.39106 6.30336C6.12482 5.99342 6.53398 6.81273 6.01635 6.48207C5.38147 6.0765 5.40007 6.3198 5.12602 6.60927C4.98328 6.76004 3.80373 6.69011 3.98129 7.24524Z" fill="white"/>
<path fill-rule="evenodd" clip-rule="evenodd" d="M1.42439 7.80664C6.98634 5.38339 10.6952 3.78583 12.5509 3.01397C17.8494 0.810153 18.9503 0.427327 19.668 0.414686C19.8258 0.411905 20.1787 0.45102 20.4073 0.636506C20.6003 0.793126 20.6534 1.0047 20.6788 1.15319C20.7042 1.30168 20.7359 1.63996 20.7107 1.90427C20.4236 4.92114 19.1812 12.2422 18.5492 15.6212C18.2817 17.0509 17.7551 17.5303 17.2453 17.5772C16.1373 17.6792 15.296 16.845 14.2228 16.1416C12.5436 15.0408 11.595 14.3556 9.96502 13.2815C8.08133 12.0402 9.30244 11.3579 10.376 10.2429C10.6569 9.95111 15.5386 5.51081 15.6331 5.10802C15.6449 5.05765 15.6559 4.86986 15.5443 4.7707C15.4328 4.67156 15.2681 4.70545 15.1493 4.73244C14.9809 4.77065 12.2983 6.54373 7.1016 10.0516C6.34017 10.5745 5.6505 10.8293 5.03256 10.8159C4.35134 10.8012 3.04093 10.4307 2.06679 10.1141C0.871957 9.72567 -0.0776716 9.52033 0.00501958 8.86073C0.0480903 8.51715 0.521214 8.16579 1.42439 7.80664Z" fill="white"/>
</svg>
